HIERARCHY
ROOT joint_Root
{
	OFFSET 0.0 0.0 0.0
	CHANNELS 6 Xposition Yposition Zposition Zrotation Xrotation Yrotation 
	JOINT Hips
	{
		OFFSET 4.5925 91.4895 -427.239
		CHANNELS 6 Xposition Yposition Zposition Zrotation Xrotation Yrotation 
		JOINT Spine
		{
			OFFSET 15.7357 0.0 0.0
			CHANNELS 6 Xposition Yposition Zposition Zrotation Xrotation Yrotation 
			JOINT Chest
			{
				OFFSET 8.98455 -0.406207 0.0
				CHANNELS 6 Xposition Yposition Zposition Zrotation Xrotation Yrotation 
				JOINT Neck
				{
					OFFSET 16.3773 0.0 0.0
					CHANNELS 6 Xposition Yposition Zposition Zrotation Xrotation Yrotation 
					JOINT Head
					{
						OFFSET 6.45672 0.0 0.0
						CHANNELS 6 Xposition Yposition Zposition Zrotation Xrotation Yrotation 
						End Site
						{
							OFFSET 0.0 0.0 0.0
						}
					}
				}
				JOINT Shoulder_L
				{
					OFFSET 12.9942 -0.242716 4.98039
					CHANNELS 6 Xposition Yposition Zposition Zrotation Xrotation Yrotation 
					JOINT UpperArm_L
					{
						OFFSET 5.34809 0.0 0.0
						CHANNELS 6 Xposition Yposition Zposition Zrotation Xrotation Yrotation 
						JOINT LowerArm_L
						{
							OFFSET 24.3286 1.87007e-05 0.0
							CHANNELS 6 Xposition Yposition Zposition Zrotation Xrotation Yrotation 
							JOINT Hand_L
							{
								OFFSET 22.2916 0.0 0.0
								CHANNELS 6 Xposition Yposition Zposition Zrotation Xrotation Yrotation 
								End Site
								{
									OFFSET 0.0 0.0 0.0
								}
							}
						}
					}
				}
				JOINT Shoulder_R
				{
					OFFSET 12.9945 -0.242716 -4.98039
					CHANNELS 6 Xposition Yposition Zposition Zrotation Xrotation Yrotation 
					JOINT UpperArm_R
					{
						OFFSET -5.34813 0.0 0.0
						CHANNELS 6 Xposition Yposition Zposition Zrotation Xrotation Yrotation 
						JOINT LowerArm_R
						{
							OFFSET -24.3289 0.000322201 0.0
							CHANNELS 6 Xposition Yposition Zposition Zrotation Xrotation Yrotation 
							JOINT Hand_R
							{
								OFFSET -22.2915 -0.000108084 0.0
								CHANNELS 6 Xposition Yposition Zposition Zrotation Xrotation Yrotation 
								End Site
								{
									OFFSET 0.0 0.0 0.0
								}
							}
						}
					}
				}
			}
		}
		JOINT UpperLeg_L
		{
			OFFSET -2.19248 -6.46944 0.0
			CHANNELS 6 Xposition Yposition Zposition Zrotation Xrotation Yrotation 
			JOINT LowerLeg_L
			{
				OFFSET 39.0811 0.0 -1.23785e-05
				CHANNELS 6 Xposition Yposition Zposition Zrotation Xrotation Yrotation 
				JOINT Foot_L
				{
					OFFSET 40.9854 0.0 -1.26872e-05
					CHANNELS 6 Xposition Yposition Zposition Zrotation Xrotation Yrotation 
					JOINT Toes_L
					{
						OFFSET 11.7543 0.0 0.0
						CHANNELS 6 Xposition Yposition Zposition Zrotation Xrotation Yrotation 
						End Site
						{
							OFFSET 0.0 0.0 0.0
						}
					}
				}
			}
		}
		JOINT UpperLeg_R
		{
			OFFSET -2.19251 6.46944 0.0
			CHANNELS 6 Xposition Yposition Zposition Zrotation Xrotation Yrotation 
			JOINT LowerLeg_R
			{
				OFFSET -39.0811 -0.00228153 -0.0401928
				CHANNELS 6 Xposition Yposition Zposition Zrotation Xrotation Yrotation 
				JOINT Foot_R
				{
					OFFSET -40.9854 0.0 0.0
					CHANNELS 6 Xposition Yposition Zposition Zrotation Xrotation Yrotation 
					JOINT Toes_R
					{
						OFFSET -11.7543 0.0 0.0
						CHANNELS 6 Xposition Yposition Zposition Zrotation Xrotation Yrotation 
						End Site
						{
							OFFSET 0.0 0.0 0.0
						}
					}
				}
			}
		}
	}
}
MOTION
Frames:	7
Frame Time:	0.0333333
0.000000 0.000000 0.000000 0.000000 0.000000 -0.000000 131.668000 89.612900 147.300000 91.146600 -45.355600 2.685380 15.735700 0.000005 -0.000001 82.919500 80.771000 -83.651400 8.984550 -0.406207 -0.000000 10.543000 -2.277120 -1.252910 16.377300 -0.000001 -0.000001 3.328850 -17.295700 3.771400 6.456720 -0.000001 -0.000000 1.099100 -22.206100 9.758130 12.994200 -0.242716 4.980390 -90.665200 2.320580 -74.000600 5.348090 -0.000007 -0.000001 -52.985400 23.569100 -29.161300 24.328600 0.000019 0.000005 5.832720 11.159900 -27.824300 22.291600 -0.000001 0.000005 16.407500 5.155900 3.801540 12.994500 -0.242716 -4.980390 88.469000 9.547180 -80.845700 -5.348130 -0.000001 -0.000004 -66.121200 30.340400 -13.075100 -24.328900 0.000322 -0.000009 0.092565 0.297759 -17.496900 -22.291500 -0.000108 -0.000004 15.955000 5.368070 -1.925940 -2.192480 -6.469440 -0.000000 -174.785000 -14.544400 -11.608700 39.081100 -0.000007 -0.000012 -0.223224 0.311588 35.618600 40.985400 -0.000006 -0.000013 -4.062330 1.648930 -71.060900 11.754300 -0.000000 0.000003 -0.000242 -0.002171 -16.659000 -2.192510 6.469440 -0.000001 -177.772000 16.287400 153.344000 -39.081100 -0.002282 -0.040193 0.094844 -0.071229 52.132700 -40.985400 0.000008 0.000006 4.344090 -1.273760 -63.299500 -11.754300 -0.000006 -0.000006 -0.014295 -0.133328 -22.011800
0.000000 0.000000 0.000000 0.000000 0.000000 -0.000000 130.964000 89.713400 148.783000 91.407900 -47.047800 2.322460 15.735700 0.000005 -0.000001 82.244100 80.928300 -82.957900 8.984550 -0.406207 -0.000000 10.203400 -2.447660 -1.208160 16.377300 -0.000001 -0.000001 2.873070 -16.843600 3.468750 6.456720 -0.000001 -0.000000 0.825481 -21.724700 9.823170 12.994200 -0.242716 4.980390 -90.583200 2.028010 -73.952400 5.348090 -0.000007 -0.000001 -51.747700 21.618800 -30.710100 24.328600 0.000019 0.000005 6.219260 10.955200 -29.830700 22.291600 -0.000001 0.000005 16.849400 5.159840 3.707080 12.994500 -0.242716 -4.980390 88.470600 9.559940 -80.867300 -5.348130 -0.000001 -0.000004 -67.143600 30.420200 -11.112800 -24.328900 0.000322 -0.000009 0.311809 1.138630 -15.369800 -22.291500 -0.000108 -0.000004 15.457200 5.361570 -1.724130 -2.192480 -6.469440 -0.000000 -175.195000 -15.568400 -10.147900 39.081100 -0.000007 -0.000012 -0.230394 0.335093 34.510900 40.985400 -0.000006 -0.000013 -4.158300 0.955526 -71.933000 11.754300 -0.000000 0.000003 -0.000223 -0.002032 -16.654000 -2.192510 6.469440 -0.000001 -174.857000 20.149000 152.691000 -39.081100 -0.002282 -0.040193 0.057852 -0.056460 44.032600 -40.985400 0.000008 0.000006 2.426140 2.141900 -62.703200 -11.754300 -0.000006 -0.000006 -0.014950 -0.137500 -22.183000
0.000000 0.000000 0.000000 0.000000 0.000000 -0.000000 130.104000 89.642600 150.248000 91.920100 -48.459800 2.215830 15.735700 0.000005 -0.000001 81.034700 81.045500 -81.762500 8.984550 -0.406207 -0.000000 9.915460 -2.787160 -1.212880 16.377300 -0.000001 -0.000001 2.424810 -16.398600 3.189210 6.456720 -0.000001 -0.000000 0.499697 -21.205200 9.967410 12.994200 -0.242716 4.980390 -90.479900 1.665080 -73.919000 5.348090 -0.000007 -0.000001 -51.065800 19.728200 -31.521600 24.328600 0.000019 0.000005 6.585640 10.680700 -31.919800 22.291600 -0.000001 0.000005 17.402700 5.161980 3.655600 12.994500 -0.242716 -4.980390 88.466800 9.520190 -80.807500 -5.348130 -0.000001 -0.000004 -68.160200 29.890400 -9.248140 -24.328900 0.000322 -0.000009 0.482925 1.970920 -13.799800 -22.291500 -0.000108 -0.000004 14.762400 5.339890 -1.075190 -2.192480 -6.469440 -0.000000 -175.713000 -16.304400 -8.857140 39.081100 -0.000007 -0.000012 -0.232057 0.346059 33.845100 40.985400 -0.000006 -0.000013 -4.362420 0.247454 -73.028200 11.754300 -0.000000 0.000003 -0.000236 -0.002130 -16.657500 -2.192510 6.469440 -0.000001 -171.735000 23.970200 152.148000 -39.081100 -0.002282 -0.040193 0.030285 -0.036705 36.335600 -40.985400 0.000008 0.000006 1.066890 4.476050 -62.549500 -11.754300 -0.000006 -0.000006 -0.015044 -0.138094 -22.207400
0.000000 0.000000 0.000000 0.000000 0.000000 -0.000000 129.018000 89.445300 151.742000 92.150500 -49.633800 1.925930 15.735700 0.000005 -0.000001 79.689300 81.147500 -80.323000 8.984550 -0.406207 -0.000000 9.646670 -3.160580 -1.000000 16.377300 -0.000001 -0.000001 2.073030 -15.979500 2.983040 6.456720 -0.000001 -0.000000 0.073125 -20.670000 9.934060 12.994200 -0.242716 4.980390 -90.421900 1.468420 -73.967800 5.348090 -0.000007 -0.000001 -50.707500 18.036200 -31.754200 24.328600 0.000019 0.000005 6.806960 10.273900 -33.793000 22.291600 -0.000001 0.000005 18.073400 5.170900 3.438660 12.994500 -0.242716 -4.980390 88.461800 9.532210 -80.789200 -5.348130 -0.000001 -0.000004 -68.933900 28.758900 -7.651870 -24.328900 0.000322 -0.000009 0.587750 2.615370 -12.692500 -22.291500 -0.000108 -0.000004 14.481200 5.339930 -1.077210 -2.192480 -6.469440 -0.000000 -175.888000 -17.086000 -7.606180 39.081100 -0.000007 -0.000012 -0.237826 0.359006 33.523200 40.985400 -0.000006 -0.000013 -4.630890 -0.158712 -74.362200 11.754300 -0.000000 0.000003 -0.000252 -0.002246 -16.661700 -2.192510 6.469440 -0.000001 -168.333000 26.219300 151.250000 -39.081100 -0.002282 -0.040193 0.024056 -0.034443 31.074400 -40.985400 0.000008 0.000006 5.717410 3.976540 -62.190900 -11.754300 -0.000006 -0.000006 -0.015143 -0.138718 -22.233000
0.000000 0.000000 0.000000 0.000000 0.000000 -0.000000 127.619000 89.089400 153.480000 92.463900 -50.501400 1.955490 15.735700 0.000005 -0.000001 78.417000 81.209500 -78.897000 8.984550 -0.406207 -0.000000 9.455410 -3.516920 -0.668547 16.377300 -0.000001 -0.000001 1.877010 -15.607700 2.772870 6.456720 -0.000001 -0.000000 -0.351751 -20.255000 9.737710 12.994200 -0.242716 4.980390 -90.401800 1.403040 -74.018100 5.348090 -0.000007 -0.000001 -50.495400 17.145000 -31.802700 24.328600 0.000019 0.000005 6.798460 9.786890 -35.043400 22.291600 -0.000001 0.000005 18.882400 5.180540 3.203260 12.994500 -0.242716 -4.980390 88.450800 9.539160 -80.731300 -5.348130 -0.000001 -0.000004 -69.351400 27.654800 -6.250830 -24.328900 0.000322 -0.000009 0.624866 2.922950 -12.092100 -22.291500 -0.000108 -0.000004 14.124400 5.335770 -0.953025 -2.192480 -6.469440 -0.000000 -175.949000 -17.712800 -5.889380 39.081100 -0.000007 -0.000012 -0.230930 0.350784 33.358300 40.985400 -0.000006 -0.000013 -4.916600 -0.262440 -76.029800 11.754300 -0.000000 0.000003 -0.000247 -0.002214 -16.660500 -2.192510 6.469440 -0.000001 -166.941000 25.214900 151.269000 -39.081100 -0.002282 -0.040193 0.032609 -0.052424 29.205400 -40.985400 0.000008 0.000006 13.431000 -0.070111 -60.298300 -11.754300 -0.000006 -0.000006 -0.014956 -0.137539 -22.184600
0.000000 0.000000 0.000000 0.000000 0.000000 -0.000000 125.905000 88.682700 155.432000 92.567700 -50.935300 2.030990 15.735700 0.000005 -0.000001 77.105800 81.272400 -77.278400 8.984550 -0.406207 -0.000000 9.258910 -3.875950 -0.030911 16.377300 -0.000001 -0.000001 1.844530 -15.346500 2.609520 6.456720 -0.000001 -0.000000 -0.687092 -19.937500 9.208420 12.994200 -0.242716 4.980390 -90.430900 1.505980 -74.031100 5.348090 -0.000007 -0.000001 -50.560100 17.234900 -31.651100 24.328600 0.000019 0.000005 6.772330 9.548070 -35.599300 22.291600 -0.000001 0.000005 19.588700 5.188340 3.009900 12.994500 -0.242716 -4.980390 88.398800 9.654500 -80.536900 -5.348130 -0.000001 -0.000004 -69.141500 26.982300 -5.168750 -24.328900 0.000322 -0.000009 0.598376 2.858520 -11.848400 -22.291500 -0.000108 -0.000004 13.714600 5.330390 -0.796759 -2.192480 -6.469440 -0.000000 -176.040000 -18.268900 -3.917240 39.081100 -0.000007 -0.000012 0.019897 -0.030116 33.450100 40.985400 -0.000006 -0.000013 -2.590660 -0.803592 -78.006100 11.754300 -0.000000 0.000003 -1.392580 -1.807580 -15.536800 -2.192510 6.469440 -0.000001 -168.840000 21.667700 151.297000 -39.081100 -0.002282 -0.040193 -0.106026 0.169752 32.782100 -40.985400 0.000008 0.000006 12.434300 -2.984330 -58.972100 -11.754300 -0.000006 -0.000006 -0.012259 -0.119807 -21.457500
0.000000 0.000000 0.000000 0.000000 0.000000 -0.000000 124.010000 88.425000 157.464000 92.961100 -51.750800 2.561760 15.735700 0.000005 -0.000001 76.817700 81.341700 -76.629600 8.984550 -0.406207 -0.000000 9.116700 -3.925730 0.689161 16.377300 -0.000001 -0.000001 1.537460 -15.219900 2.327980 6.456720 -0.000001 -0.000000 -0.700625 -19.560300 8.608200 12.994200 -0.242716 4.980390 -90.503200 1.746170 -73.922700 5.348090 -0.000007 -0.000001 -51.809600 17.864600 -30.629600 24.328600 0.000019 0.000005 7.399980 10.285400 -36.031300 22.291600 -0.000001 0.000005 19.803400 5.189670 2.976650 12.994500 -0.242716 -4.980390 88.324400 9.892470 -80.336800 -5.348130 -0.000001 -0.000004 -68.065500 27.051600 -4.739940 -24.328900 0.000322 -0.000009 0.517825 2.528810 -11.599300 -22.291500 -0.000108 -0.000004 13.558200 5.329850 -0.780939 -2.192480 -6.469440 -0.000000 -175.778000 -18.467700 -3.545550 39.081100 -0.000007 -0.000012 -0.011281 0.015310 36.386800 40.985400 -0.000006 -0.000013 -3.527470 -0.629565 -75.407000 11.754300 -0.000000 0.000003 -1.305610 -1.638070 -20.812100 -2.192510 6.469440 -0.000001 -170.702000 17.972800 151.921000 -39.081100 -0.002282 -0.040193 -0.184603 0.252454 36.658700 -40.985400 0.000008 0.000006 11.185000 -6.215990 -61.886000 -11.754300 -0.000006 -0.000006 -0.010272 -0.105659 -20.878300
